<svg width="281" height="94" viewBox="0 0 281 94" fill="none" xmlns="http://www.w3.org/2000/svg">
<path d="M12.1 9.2V23H9.6V11.04H4.08V23H1.56V9.2H12.1ZM17.0123 13.18L17.2123 14.68C17.679 14.16 18.2657 13.74 18.9723 13.42C19.679 13.1 20.399 12.94 21.1323 12.94C22.3723 12.94 23.2523 13.3867 23.7723 14.28C24.3057 15.1733 24.5723 16.4667 24.5723 18.16C24.5723 19.4533 24.4323 20.4733 24.1523 21.22C23.8857 21.9533 23.479 22.48 22.9323 22.8C22.3857 23.1067 21.699 23.26 20.8723 23.26C20.2457 23.26 19.6323 23.18 19.0323 23.02C18.4457 22.86 17.899 22.6 17.3923 22.24C17.459 22.9333 17.4857 23.6267 17.4723 24.32V26.9H15.0523V13.18H17.0123ZM20.2323 14.86C19.7523 14.86 19.299 14.96 18.8723 15.16C18.459 15.36 17.9923 15.6533 17.4723 16.04V20.9C17.939 21.0333 18.3657 21.1533 18.7523 21.26C19.1523 21.3533 19.5923 21.4 20.0723 21.4C20.5523 21.4 20.939 21.32 21.2323 21.16C21.5257 20.9867 21.739 20.6667 21.8723 20.2C22.0057 19.7333 22.0723 19.06 22.0723 18.18C22.0723 17.3133 22.0057 16.64 21.8723 16.16C21.7523 15.68 21.559 15.3467 21.2923 15.16C21.0257 14.96 20.6723 14.86 20.2323 14.86ZM31.3673 12.94C32.554 12.94 33.5007 13.1067 34.2073 13.44C34.9273 13.7733 35.4407 14.32 35.7473 15.08C36.0673 15.84 36.2273 16.8467 36.2273 18.1C36.2273 19.3533 36.0673 20.36 35.7473 21.12C35.4407 21.88 34.9273 22.4267 34.2073 22.76C33.5007 23.0933 32.554 23.26 31.3673 23.26C30.1673 23.26 29.2073 23.0933 28.4873 22.76C27.7807 22.4267 27.2673 21.88 26.9473 21.12C26.6273 20.36 26.4673 19.3533 26.4673 18.1C26.4673 16.8467 26.6273 15.84 26.9473 15.08C27.2673 14.32 27.7807 13.7733 28.4873 13.44C29.2073 13.1067 30.1673 12.94 31.3673 12.94ZM31.3673 14.78C30.7673 14.78 30.294 14.88 29.9473 15.08C29.6007 15.2667 29.354 15.6 29.2073 16.08C29.074 16.56 29.0073 17.2333 29.0073 18.1C29.0073 18.9667 29.074 19.64 29.2073 20.12C29.354 20.6 29.6007 20.9333 29.9473 21.12C30.294 21.3067 30.7673 21.4 31.3673 21.4C31.954 21.4 32.414 21.3067 32.7473 21.12C33.094 20.9333 33.334 20.6 33.4673 20.12C33.614 19.64 33.6873 18.9667 33.6873 18.1C33.6873 17.2333 33.614 16.56 33.4673 16.08C33.334 15.6 33.094 15.2667 32.7473 15.08C32.414 14.88 31.954 14.78 31.3673 14.78ZM40.9075 13.12C41.7875 13.12 42.6808 13.1267 43.5875 13.14C44.5075 13.1533 45.3608 13.2133 46.1475 13.32L46.0475 15.02H41.9675C41.6075 15.02 41.3408 15.1 41.1675 15.26C41.0075 15.42 40.9275 15.68 40.9275 16.04V23H38.5275V15.38C38.5275 13.8733 39.3208 13.12 40.9075 13.12ZM52.2072 12.94C53.3939 12.94 54.3405 13.1067 55.0472 13.44C55.7672 13.7733 56.2805 14.32 56.5872 15.08C56.9072 15.84 57.0672 16.8467 57.0672 18.1C57.0672 19.3533 56.9072 20.36 56.5872 21.12C56.2805 21.88 55.7672 22.4267 55.0472 22.76C54.3405 23.0933 53.3939 23.26 52.2072 23.26C51.0072 23.26 50.0472 23.0933 49.3272 22.76C48.6205 22.4267 48.1072 21.88 47.7872 21.12C47.4672 20.36 47.3072 19.3533 47.3072 18.1C47.3072 16.8467 47.4672 15.84 47.7872 15.08C48.1072 14.32 48.6205 13.7733 49.3272 13.44C50.0472 13.1067 51.0072 12.94 52.2072 12.94ZM52.2072 14.78C51.6072 14.78 51.1339 14.88 50.7872 15.08C50.4405 15.2667 50.1939 15.6 50.0472 16.08C49.9139 16.56 49.8472 17.2333 49.8472 18.1C49.8472 18.9667 49.9139 19.64 50.0472 20.12C50.1939 20.6 50.4405 20.9333 50.7872 21.12C51.1339 21.3067 51.6072 21.4 52.2072 21.4C52.7939 21.4 53.2539 21.3067 53.5872 21.12C53.9339 20.9333 54.1739 20.6 54.3072 20.12C54.4539 19.64 54.5272 18.9667 54.5272 18.1C54.5272 17.2333 54.4539 16.56 54.3072 16.08C54.1739 15.6 53.9339 15.2667 53.5872 15.08C53.2539 14.88 52.7939 14.78 52.2072 14.78ZM68.0706 13.18V23H65.6506V14.92H63.9906C63.6173 14.92 63.344 15.0067 63.1706 15.18C63.0106 15.34 62.9106 15.6133 62.8706 16C62.764 16.84 62.6506 17.6933 62.5306 18.56C62.4106 19.4267 62.2506 20.1667 62.0506 20.78C61.824 21.6733 61.384 22.3 60.7306 22.66C60.0906 23.02 59.324 23.1667 58.4306 23.1L58.1706 21.3C58.6773 21.1933 59.0573 21.06 59.3106 20.9C59.564 20.7267 59.7573 20.46 59.8906 20.1C60.0106 19.74 60.1173 19.3067 60.2106 18.8C60.304 18.2933 60.384 17.76 60.4506 17.2C60.5173 16.6267 60.5706 16.08 60.6106 15.56C60.704 14.7733 60.9506 14.18 61.3506 13.78C61.764 13.38 62.384 13.18 63.2106 13.18H68.0706ZM75.3127 12.94C76.4993 12.94 77.446 13.1067 78.1527 13.44C78.8727 13.7733 79.386 14.32 79.6927 15.08C80.0127 15.84 80.1727 16.8467 80.1727 18.1C80.1727 19.3533 80.0127 20.36 79.6927 21.12C79.386 21.88 78.8727 22.4267 78.1527 22.76C77.446 23.0933 76.4993 23.26 75.3127 23.26C74.1127 23.26 73.1527 23.0933 72.4327 22.76C71.726 22.4267 71.2127 21.88 70.8927 21.12C70.5727 20.36 70.4127 19.3533 70.4127 18.1C70.4127 16.8467 70.5727 15.84 70.8927 15.08C71.2127 14.32 71.726 13.7733 72.4327 13.44C73.1527 13.1067 74.1127 12.94 75.3127 12.94ZM75.3127 14.78C74.7127 14.78 74.2393 14.88 73.8927 15.08C73.546 15.2667 73.2993 15.6 73.1527 16.08C73.0193 16.56 72.9527 17.2333 72.9527 18.1C72.9527 18.9667 73.0193 19.64 73.1527 20.12C73.2993 20.6 73.546 20.9333 73.8927 21.12C74.2393 21.3067 74.7127 21.4 75.3127 21.4C75.8993 21.4 76.3593 21.3067 76.6927 21.12C77.0393 20.9333 77.2793 20.6 77.4127 20.12C77.5593 19.64 77.6327 18.9667 77.6327 18.1C77.6327 17.2333 77.5593 16.56 77.4127 16.08C77.2793 15.6 77.0393 15.2667 76.6927 15.08C76.3593 14.88 75.8993 14.78 75.3127 14.78ZM86.9128 12.94C87.4061 12.94 87.9728 12.98 88.6128 13.06C89.2528 13.1267 89.8328 13.2667 90.3528 13.48L90.0728 15C89.5795 14.9733 89.0861 14.9533 88.5928 14.94C88.1128 14.9267 87.6861 14.92 87.3128 14.92C86.6461 14.92 86.1128 15.0133 85.7128 15.2C85.3261 15.3867 85.0461 15.7067 84.8728 16.16C84.6995 16.6133 84.6128 17.2533 84.6128 18.08C84.6128 18.9067 84.6995 19.5533 84.8728 20.02C85.0461 20.4733 85.3261 20.7933 85.7128 20.98C86.1128 21.1667 86.6461 21.26 87.3128 21.26C87.6328 21.26 88.0728 21.2467 88.6328 21.22C89.2061 21.1933 89.7595 21.1467 90.2928 21.08L90.5128 22.64C90.0061 22.8533 89.4328 23.0067 88.7928 23.1C88.1661 23.1933 87.5328 23.24 86.8928 23.24C85.7195 23.24 84.7795 23.0733 84.0728 22.74C83.3661 22.4067 82.8528 21.8667 82.5328 21.12C82.2261 20.36 82.0728 19.3467 82.0728 18.08C82.0728 16.8133 82.2328 15.8067 82.5528 15.06C82.8728 14.3 83.3861 13.76 84.0928 13.44C84.7995 13.1067 85.7395 12.94 86.9128 12.94ZM96.8752 12.94C98.0618 12.94 99.0085 13.1067 99.7152 13.44C100.435 13.7733 100.948 14.32 101.255 15.08C101.575 15.84 101.735 16.8467 101.735 18.1C101.735 19.3533 101.575 20.36 101.255 21.12C100.948 21.88 100.435 22.4267 99.7152 22.76C99.0085 23.0933 98.0618 23.26 96.8752 23.26C95.6752 23.26 94.7152 23.0933 93.9952 22.76C93.2885 22.4267 92.7752 21.88 92.4552 21.12C92.1352 20.36 91.9752 19.3533 91.9752 18.1C91.9752 16.8467 92.1352 15.84 92.4552 15.08C92.7752 14.32 93.2885 13.7733 93.9952 13.44C94.7152 13.1067 95.6752 12.94 96.8752 12.94ZM96.8752 14.78C96.2752 14.78 95.8018 14.88 95.4552 15.08C95.1085 15.2667 94.8618 15.6 94.7152 16.08C94.5818 16.56 94.5152 17.2333 94.5152 18.1C94.5152 18.9667 94.5818 19.64 94.7152 20.12C94.8618 20.6 95.1085 20.9333 95.4552 21.12C95.8018 21.3067 96.2752 21.4 96.8752 21.4C97.4618 21.4 97.9218 21.3067 98.2552 21.12C98.6018 20.9333 98.8418 20.6 98.9752 20.12C99.1218 19.64 99.1952 18.9667 99.1952 18.1C99.1952 17.2333 99.1218 16.56 98.9752 16.08C98.8418 15.6 98.6018 15.2667 98.2552 15.08C97.9218 14.88 97.4618 14.78 96.8752 14.78ZM108.495 13.08C109.535 13.08 110.362 13.1533 110.975 13.3C111.602 13.4467 112.049 13.7133 112.315 14.1C112.595 14.4733 112.735 15.0067 112.735 15.7C112.735 16.3933 112.569 16.92 112.235 17.28C111.902 17.64 111.362 17.8533 110.615 17.92V17.98C111.535 18.0467 112.175 18.3 112.535 18.74C112.909 19.18 113.095 19.7933 113.095 20.58C113.095 21.26 112.955 21.7867 112.675 22.16C112.409 22.52 111.975 22.78 111.375 22.94C110.789 23.0867 110.015 23.16 109.055 23.16C108.309 23.16 107.655 23.1533 107.095 23.14C106.535 23.14 106.015 23.1267 105.535 23.1C105.069 23.0867 104.582 23.0667 104.075 23.04V13.2C104.529 13.16 104.962 13.1333 105.375 13.12C105.802 13.1067 106.262 13.1 106.755 13.1C107.262 13.0867 107.842 13.08 108.495 13.08ZM108.395 14.78C107.995 14.7667 107.629 14.76 107.295 14.76C106.962 14.76 106.649 14.76 106.355 14.76V17.22H108.595C109.289 17.22 109.775 17.14 110.055 16.98C110.335 16.8067 110.475 16.4667 110.475 15.96C110.475 15.4933 110.322 15.18 110.015 15.02C109.709 14.86 109.169 14.78 108.395 14.78ZM108.595 18.68H106.355V21.44C106.689 21.44 107.049 21.44 107.435 21.44C107.822 21.44 108.235 21.44 108.675 21.44C109.422 21.44 109.942 21.3533 110.235 21.18C110.542 20.9933 110.695 20.6267 110.695 20.08C110.695 19.5467 110.535 19.18 110.215 18.98C109.909 18.78 109.369 18.68 108.595 18.68ZM120.344 12.94C121.517 12.94 122.411 13.1867 123.024 13.68C123.651 14.16 123.964 15.0467 123.964 16.34V23H122.044L121.784 21.4C121.544 21.68 121.237 21.96 120.864 22.24C120.491 22.5067 120.057 22.7333 119.564 22.92C119.084 23.1067 118.544 23.2 117.944 23.2C117.051 23.2 116.317 22.9667 115.744 22.5C115.171 22.0333 114.884 21.3533 114.884 20.46V19.42C114.884 18.6467 115.137 18.0467 115.644 17.62C116.151 17.18 116.857 16.96 117.764 16.96H121.544V16.32C121.531 15.8 121.404 15.4267 121.164 15.2C120.924 14.96 120.471 14.84 119.804 14.84C119.284 14.84 118.637 14.86 117.864 14.9C117.104 14.94 116.337 14.9933 115.564 15.06L115.344 13.4C115.811 13.32 116.337 13.2467 116.924 13.18C117.511 13.1 118.104 13.04 118.704 13C119.304 12.96 119.851 12.94 120.344 12.94ZM117.284 20.14C117.284 20.94 117.724 21.3467 118.604 21.36C119.031 21.36 119.504 21.26 120.024 21.06C120.557 20.86 121.064 20.5667 121.544 20.18V18.46H118.424C118.011 18.4733 117.717 18.58 117.544 18.78C117.371 18.98 117.284 19.2533 117.284 19.6V20.14ZM135.473 13.18V23H133.053V14.92H131.393C131.02 14.92 130.746 15.0067 130.573 15.18C130.413 15.34 130.313 15.6133 130.273 16C130.166 16.84 130.053 17.6933 129.933 18.56C129.813 19.4267 129.653 20.1667 129.453 20.78C129.226 21.6733 128.786 22.3 128.133 22.66C127.493 23.02 126.726 23.1667 125.833 23.1L125.573 21.3C126.08 21.1933 126.46 21.06 126.713 20.9C126.966 20.7267 127.16 20.46 127.293 20.1C127.413 19.74 127.52 19.3067 127.613 18.8C127.706 18.2933 127.786 17.76 127.853 17.2C127.92 16.6267 127.973 16.08 128.013 15.56C128.106 14.7733 128.353 14.18 128.753 13.78C129.166 13.38 129.786 13.18 130.613 13.18H135.473ZM142.715 12.94C143.902 12.94 144.848 13.1067 145.555 13.44C146.275 13.7733 146.788 14.32 147.095 15.08C147.415 15.84 147.575 16.8467 147.575 18.1C147.575 19.3533 147.415 20.36 147.095 21.12C146.788 21.88 146.275 22.4267 145.555 22.76C144.848 23.0933 143.902 23.26 142.715 23.26C141.515 23.26 140.555 23.0933 139.835 22.76C139.128 22.4267 138.615 21.88 138.295 21.12C137.975 20.36 137.815 19.3533 137.815 18.1C137.815 16.8467 137.975 15.84 138.295 15.08C138.615 14.32 139.128 13.7733 139.835 13.44C140.555 13.1067 141.515 12.94 142.715 12.94ZM142.715 14.78C142.115 14.78 141.642 14.88 141.295 15.08C140.948 15.2667 140.702 15.6 140.555 16.08C140.422 16.56 140.355 17.2333 140.355 18.1C140.355 18.9667 140.422 19.64 140.555 20.12C140.702 20.6 140.948 20.9333 141.295 21.12C141.642 21.3067 142.115 21.4 142.715 21.4C143.302 21.4 143.762 21.3067 144.095 21.12C144.442 20.9333 144.682 20.6 144.815 20.12C144.962 19.64 145.035 18.9667 145.035 18.1C145.035 17.2333 144.962 16.56 144.815 16.08C144.682 15.6 144.442 15.2667 144.095 15.08C143.762 14.88 143.302 14.78 142.715 14.78ZM151.255 14.08C151.588 14.08 151.815 14.14 151.935 14.26C152.068 14.38 152.135 14.6067 152.135 14.94V15.94C152.135 16.2733 152.068 16.5067 151.935 16.64C151.815 16.76 151.588 16.82 151.255 16.82H150.595C150.275 16.82 150.048 16.76 149.915 16.64C149.782 16.5067 149.715 16.2733 149.715 15.94V14.94C149.715 14.6067 149.782 14.38 149.915 14.26C150.048 14.14 150.275 14.08 150.595 14.08H151.255ZM151.255 20.26C151.588 20.26 151.815 20.32 151.935 20.44C152.068 20.56 152.135 20.7867 152.135 21.12V22.12C152.135 22.4533 152.068 22.6867 151.935 22.82C151.815 22.94 151.588 23 151.255 23H150.595C150.275 23 150.048 22.94 149.915 22.82C149.782 22.6867 149.715 22.4533 149.715 22.12V21.12C149.715 20.7867 149.782 20.56 149.915 20.44C150.048 20.32 150.275 20.26 150.595 20.26H151.255Z" fill="#363738"/>
<path d="M17.118 55.74V93H10.368V65.244C10.368 64.632 10.386 64.02 10.422 63.408C10.458 62.796 10.548 62.184 10.692 61.572L1.728 64.056L0.864 59.52L10.368 55.74H17.118ZM55.8883 55.74V93H49.1383V65.244C49.1383 64.632 49.1563 64.02 49.1923 63.408C49.2283 62.796 49.3183 62.184 49.4623 61.572L40.4983 64.056L39.6343 59.52L49.1383 55.74H55.8883ZM78.0266 55.038C81.4466 55.038 84.1466 55.686 86.1266 56.982C88.1426 58.242 89.5826 60.294 90.4466 63.138C91.3466 65.982 91.7966 69.726 91.7966 74.37C91.7966 79.014 91.3466 82.758 90.4466 85.602C89.5826 88.446 88.1426 90.516 86.1266 91.812C84.1466 93.072 81.4466 93.702 78.0266 93.702C74.6066 93.702 71.8886 93.072 69.8726 91.812C67.8926 90.516 66.4706 88.446 65.6066 85.602C64.7426 82.758 64.3106 79.014 64.3106 74.37C64.3106 69.726 64.7426 65.982 65.6066 63.138C66.4706 60.294 67.8926 58.242 69.8726 56.982C71.8886 55.686 74.6066 55.038 78.0266 55.038ZM78.0266 60.492C76.2266 60.492 74.8046 60.924 73.7606 61.788C72.7526 62.616 72.0326 64.038 71.6006 66.054C71.2046 68.07 71.0066 70.842 71.0066 74.37C71.0066 77.898 71.2046 80.67 71.6006 82.686C72.0326 84.702 72.7526 86.142 73.7606 87.006C74.8046 87.834 76.2266 88.248 78.0266 88.248C79.8266 88.248 81.2306 87.834 82.2386 87.006C83.2826 86.142 84.0206 84.702 84.4526 82.686C84.8846 80.67 85.1006 77.898 85.1006 74.37C85.1006 70.842 84.8846 68.07 84.4526 66.054C84.0206 64.038 83.2826 62.616 82.2386 61.788C81.2306 60.924 79.8266 60.492 78.0266 60.492ZM118.372 55.74C119.632 55.74 120.532 56.118 121.072 56.874C121.648 57.594 121.738 58.53 121.342 59.682L109.84 93H103.198L113.134 64.488C113.314 63.948 113.512 63.408 113.728 62.868C113.944 62.328 114.214 61.806 114.538 61.302H96.7722L96.5022 55.74H118.372Z" fill="#363738"/>
<path d="M144.74 83.18V93H142.36V84.94H138.1V93H135.74V83.18H144.74ZM151.958 82.94C153.145 82.94 154.091 83.1067 154.798 83.44C155.518 83.7733 156.031 84.32 156.338 85.08C156.658 85.84 156.818 86.8467 156.818 88.1C156.818 89.3533 156.658 90.36 156.338 91.12C156.031 91.88 155.518 92.4267 154.798 92.76C154.091 93.0933 153.145 93.26 151.958 93.26C150.758 93.26 149.798 93.0933 149.078 92.76C148.371 92.4267 147.858 91.88 147.538 91.12C147.218 90.36 147.058 89.3533 147.058 88.1C147.058 86.8467 147.218 85.84 147.538 85.08C147.858 84.32 148.371 83.7733 149.078 83.44C149.798 83.1067 150.758 82.94 151.958 82.94ZM151.958 84.78C151.358 84.78 150.885 84.88 150.538 85.08C150.191 85.2667 149.945 85.6 149.798 86.08C149.665 86.56 149.598 87.2333 149.598 88.1C149.598 88.9667 149.665 89.64 149.798 90.12C149.945 90.6 150.191 90.9333 150.538 91.12C150.885 91.3067 151.358 91.4 151.958 91.4C152.545 91.4 153.005 91.3067 153.338 91.12C153.685 90.9333 153.925 90.6 154.058 90.12C154.205 89.64 154.278 88.9667 154.278 88.1C154.278 87.2333 154.205 86.56 154.058 86.08C153.925 85.6 153.685 85.2667 153.338 85.08C153.005 84.88 152.545 84.78 151.958 84.78ZM167.821 83.18V93H165.401V84.92H163.741C163.368 84.92 163.095 85.0067 162.921 85.18C162.761 85.34 162.661 85.6133 162.621 86C162.515 86.84 162.401 87.6933 162.281 88.56C162.161 89.4267 162.001 90.1667 161.801 90.78C161.575 91.6733 161.135 92.3 160.481 92.66C159.841 93.02 159.075 93.1667 158.181 93.1L157.921 91.3C158.428 91.1933 158.808 91.06 159.061 90.9C159.315 90.7267 159.508 90.46 159.641 90.1C159.761 89.74 159.868 89.3067 159.961 88.8C160.055 88.2933 160.135 87.76 160.201 87.2C160.268 86.6267 160.321 86.08 160.361 85.56C160.455 84.7733 160.701 84.18 161.101 83.78C161.515 83.38 162.135 83.18 162.961 83.18H167.821ZM174.823 86.78C175.917 86.78 176.77 86.88 177.383 87.08C178.01 87.2667 178.45 87.5933 178.703 88.06C178.97 88.5133 179.103 89.14 179.103 89.94C179.103 90.7667 178.97 91.4133 178.703 91.88C178.437 92.3333 178.017 92.6533 177.443 92.84C176.87 93.0267 176.123 93.12 175.203 93.12C174.51 93.12 173.91 93.1133 173.403 93.1C172.897 93.1 172.43 93.0867 172.003 93.06C171.577 93.0467 171.137 93.0267 170.683 93H170.603V83.18H172.963V86.78H174.823ZM174.823 88.34H172.963V91.38C173.51 91.3933 174.13 91.4 174.823 91.4C175.517 91.4 175.997 91.3 176.263 91.1C176.53 90.9 176.663 90.4867 176.663 89.86C176.663 89.2733 176.537 88.8733 176.283 88.66C176.043 88.4467 175.557 88.34 174.823 88.34ZM184.049 83C185.169 83 186.069 83.0667 186.749 83.2C187.443 83.3333 187.943 83.5933 188.249 83.98C188.556 84.3533 188.709 84.9067 188.709 85.64C188.709 86.36 188.549 86.9067 188.229 87.28C187.923 87.64 187.383 87.8533 186.609 87.92V87.98C187.489 88.0467 188.116 88.2933 188.489 88.72C188.876 89.1333 189.069 89.7533 189.069 90.58C189.069 91.3 188.916 91.8533 188.609 92.24C188.303 92.6133 187.823 92.8667 187.169 93C186.516 93.1333 185.683 93.2 184.669 93.2C184.003 93.2 183.309 93.1733 182.589 93.12C181.883 93.08 181.189 92.9933 180.509 92.86L180.669 91.16C181.243 91.2133 181.869 91.26 182.549 91.3C183.229 91.3267 183.883 91.34 184.509 91.34C185.309 91.34 185.856 91.26 186.149 91.1C186.443 90.94 186.589 90.6 186.589 90.08C186.589 89.5867 186.443 89.2533 186.149 89.08C185.856 88.9067 185.316 88.82 184.529 88.82L181.889 88.8V87.24L184.509 87.2C185.216 87.1867 185.696 87.1067 185.949 86.96C186.203 86.8 186.329 86.48 186.329 86C186.329 85.5333 186.176 85.2333 185.869 85.1C185.563 84.9533 184.989 84.88 184.149 84.88C183.576 84.88 183.003 84.9 182.429 84.94C181.869 84.9667 181.376 85.0067 180.949 85.06L180.769 83.36C181.369 83.2 181.963 83.1 182.549 83.06C183.136 83.02 183.636 83 184.049 83ZM195.767 82.94C196.953 82.94 197.9 83.1067 198.607 83.44C199.327 83.7733 199.84 84.32 200.147 85.08C200.467 85.84 200.627 86.8467 200.627 88.1C200.627 89.3533 200.467 90.36 200.147 91.12C199.84 91.88 199.327 92.4267 198.607 92.76C197.9 93.0933 196.953 93.26 195.767 93.26C194.567 93.26 193.607 93.0933 192.887 92.76C192.18 92.4267 191.667 91.88 191.347 91.12C191.027 90.36 190.867 89.3533 190.867 88.1C190.867 86.8467 191.027 85.84 191.347 85.08C191.667 84.32 192.18 83.7733 192.887 83.44C193.607 83.1067 194.567 82.94 195.767 82.94ZM195.767 84.78C195.167 84.78 194.693 84.88 194.347 85.08C194 85.2667 193.753 85.6 193.607 86.08C193.473 86.56 193.407 87.2333 193.407 88.1C193.407 88.9667 193.473 89.64 193.607 90.12C193.753 90.6 194 90.9333 194.347 91.12C194.693 91.3067 195.167 91.4 195.767 91.4C196.353 91.4 196.813 91.3067 197.147 91.12C197.493 90.9333 197.733 90.6 197.867 90.12C198.013 89.64 198.087 88.9667 198.087 88.1C198.087 87.2333 198.013 86.56 197.867 86.08C197.733 85.6 197.493 85.2667 197.147 85.08C196.813 84.88 196.353 84.78 195.767 84.78ZM207.387 83.08C208.427 83.08 209.253 83.1533 209.867 83.3C210.493 83.4467 210.94 83.7133 211.207 84.1C211.487 84.4733 211.627 85.0067 211.627 85.7C211.627 86.3933 211.46 86.92 211.127 87.28C210.793 87.64 210.253 87.8533 209.507 87.92V87.98C210.427 88.0467 211.067 88.3 211.427 88.74C211.8 89.18 211.987 89.7933 211.987 90.58C211.987 91.26 211.847 91.7867 211.567 92.16C211.3 92.52 210.867 92.78 210.267 92.94C209.68 93.0867 208.907 93.16 207.947 93.16C207.2 93.16 206.547 93.1533 205.987 93.14C205.427 93.14 204.907 93.1267 204.427 93.1C203.96 93.0867 203.473 93.0667 202.967 93.04V83.2C203.42 83.16 203.853 83.1333 204.267 83.12C204.693 83.1067 205.153 83.1 205.647 83.1C206.153 83.0867 206.733 83.08 207.387 83.08ZM207.287 84.78C206.887 84.7667 206.52 84.76 206.187 84.76C205.853 84.76 205.54 84.76 205.247 84.76V87.22H207.487C208.18 87.22 208.667 87.14 208.947 86.98C209.227 86.8067 209.367 86.4667 209.367 85.96C209.367 85.4933 209.213 85.18 208.907 85.02C208.6 84.86 208.06 84.78 207.287 84.78ZM207.487 88.68H205.247V91.44C205.58 91.44 205.94 91.44 206.327 91.44C206.713 91.44 207.127 91.44 207.567 91.44C208.313 91.44 208.833 91.3533 209.127 91.18C209.433 90.9933 209.587 90.6267 209.587 90.08C209.587 89.5467 209.427 89.18 209.107 88.98C208.8 88.78 208.26 88.68 207.487 88.68ZM219.235 82.94C220.409 82.94 221.302 83.1867 221.915 83.68C222.542 84.16 222.855 85.0467 222.855 86.34V93H220.935L220.675 91.4C220.435 91.68 220.129 91.96 219.755 92.24C219.382 92.5067 218.949 92.7333 218.455 92.92C217.975 93.1067 217.435 93.2 216.835 93.2C215.942 93.2 215.209 92.9667 214.635 92.5C214.062 92.0333 213.775 91.3533 213.775 90.46V89.42C213.775 88.6467 214.029 88.0467 214.535 87.62C215.042 87.18 215.749 86.96 216.655 86.96H220.435V86.32C220.422 85.8 220.295 85.4267 220.055 85.2C219.815 84.96 219.362 84.84 218.695 84.84C218.175 84.84 217.529 84.86 216.755 84.9C215.995 84.94 215.229 84.9933 214.455 85.06L214.235 83.4C214.702 83.32 215.229 83.2467 215.815 83.18C216.402 83.1 216.995 83.04 217.595 83C218.195 82.96 218.742 82.94 219.235 82.94ZM216.175 90.14C216.175 90.94 216.615 91.3467 217.495 91.36C217.922 91.36 218.395 91.26 218.915 91.06C219.449 90.86 219.955 90.5667 220.435 90.18V88.46H217.315C216.902 88.4733 216.609 88.58 216.435 88.78C216.262 88.98 216.175 89.2533 216.175 89.6V90.14ZM233.824 83.18V85.08H230.444V93H228.024V85.08H224.624V83.18H233.824ZM239.905 82.94C241.492 82.94 242.632 83.22 243.325 83.78C244.019 84.3267 244.372 85.14 244.385 86.22C244.385 87.1133 244.172 87.7933 243.745 88.26C243.332 88.7133 242.625 88.94 241.625 88.94H237.645C237.739 89.8867 237.992 90.5133 238.405 90.82C238.819 91.1267 239.459 91.28 240.325 91.28C240.819 91.28 241.385 91.26 242.025 91.22C242.679 91.18 243.305 91.1267 243.905 91.06L244.145 92.6C243.785 92.7467 243.372 92.8733 242.905 92.98C242.439 93.0733 241.952 93.14 241.445 93.18C240.939 93.22 240.465 93.24 240.025 93.24C238.239 93.24 236.965 92.84 236.205 92.04C235.459 91.2267 235.085 89.9133 235.085 88.1C235.085 86.8067 235.245 85.7867 235.565 85.04C235.899 84.28 236.419 83.74 237.125 83.42C237.832 83.1 238.759 82.94 239.905 82.94ZM239.985 84.74C239.412 84.74 238.952 84.8133 238.605 84.96C238.272 85.1067 238.025 85.38 237.865 85.78C237.719 86.1667 237.639 86.72 237.625 87.44H240.965C241.405 87.44 241.685 87.32 241.805 87.08C241.939 86.84 242.005 86.5467 242.005 86.2C242.005 85.6667 241.852 85.2933 241.545 85.08C241.239 84.8533 240.719 84.74 239.985 84.74ZM255.4 83.18V93H252.98V84.92H251.32C250.946 84.92 250.673 85.0067 250.5 85.18C250.34 85.34 250.24 85.6133 250.2 86C250.093 86.84 249.98 87.6933 249.86 88.56C249.74 89.4267 249.58 90.1667 249.38 90.78C249.153 91.6733 248.713 92.3 248.06 92.66C247.42 93.02 246.653 93.1667 245.76 93.1L245.5 91.3C246.006 91.1933 246.386 91.06 246.64 90.9C246.893 90.7267 247.086 90.46 247.22 90.1C247.34 89.74 247.446 89.3067 247.54 88.8C247.633 88.2933 247.713 87.76 247.78 87.2C247.846 86.6267 247.9 86.08 247.94 85.56C248.033 84.7733 248.28 84.18 248.68 83.78C249.093 83.38 249.713 83.18 250.54 83.18H255.4ZM262.562 82.94C264.148 82.94 265.288 83.22 265.982 83.78C266.675 84.3267 267.028 85.14 267.042 86.22C267.042 87.1133 266.828 87.7933 266.402 88.26C265.988 88.7133 265.282 88.94 264.282 88.94H260.302C260.395 89.8867 260.648 90.5133 261.062 90.82C261.475 91.1267 262.115 91.28 262.982 91.28C263.475 91.28 264.042 91.26 264.682 91.22C265.335 91.18 265.962 91.1267 266.562 91.06L266.802 92.6C266.442 92.7467 266.028 92.8733 265.562 92.98C265.095 93.0733 264.608 93.14 264.102 93.18C263.595 93.22 263.122 93.24 262.682 93.24C260.895 93.24 259.622 92.84 258.862 92.04C258.115 91.2267 257.742 89.9133 257.742 88.1C257.742 86.8067 257.902 85.7867 258.222 85.04C258.555 84.28 259.075 83.74 259.782 83.42C260.488 83.1 261.415 82.94 262.562 82.94ZM262.642 84.74C262.068 84.74 261.608 84.8133 261.262 84.96C260.928 85.1067 260.682 85.38 260.522 85.78C260.375 86.1667 260.295 86.72 260.282 87.44H263.622C264.062 87.44 264.342 87.32 264.462 87.08C264.595 86.84 264.662 86.5467 264.662 86.2C264.662 85.6667 264.508 85.2933 264.202 85.08C263.895 84.8533 263.375 84.74 262.642 84.74ZM278.495 83.18V93L276.315 93.02V87.28C276.315 87.04 276.322 86.8067 276.335 86.58C276.362 86.34 276.382 86.0867 276.395 85.82H276.355C276.262 86.0333 276.149 86.2667 276.015 86.52C275.882 86.76 275.749 86.9667 275.615 87.14L271.355 93H269.275V83.18H271.455V88.98C271.455 89.22 271.449 89.4467 271.435 89.66C271.422 89.8733 271.402 90.1133 271.375 90.38H271.415C271.522 90.1533 271.635 89.9333 271.755 89.72C271.889 89.5067 272.022 89.3133 272.155 89.14L276.435 83.18H278.495ZM275.355 78.82H277.015C277.069 79.3667 276.975 79.8667 276.735 80.32C276.495 80.76 276.129 81.12 275.635 81.4C275.155 81.6667 274.569 81.8 273.875 81.8C273.182 81.8 272.582 81.6667 272.075 81.4C271.582 81.12 271.215 80.76 270.975 80.32C270.735 79.8667 270.642 79.3667 270.695 78.82H272.355C272.329 79.42 272.449 79.86 272.715 80.14C272.982 80.42 273.369 80.56 273.875 80.56C274.355 80.56 274.729 80.42 274.995 80.14C275.262 79.86 275.382 79.42 275.355 78.82Z" fill="#6B6B6C"/>
</svg>
